/* XPM */
static char *result[] = {
/* columns rows colors chars-per-pixel */
"40 40 34 1 ",
"  c #2A2628",
". c #262123",
"X c #292527",
"o c #221D1F",
"O c #231F21",
"+ c #272224",
"@ c #282426",
"# c #2D292B",
"$ c #272325",
"% c #211D1F",
"& c #1E1A1C",
"* c #252123",
"= c #2C282A",
"- c #262224",
"; c #242022",
": c #1F1B1D",
"> c #2A2527",
", c #2B2729",
"< c #241F21",
"1 c #1D191B",
"2 c #211C1E",
"3 c #201C1E",
"4 c #221E20",
"5 c #282325",
"6 c #252022",
"7 c #2E2A2C",
"8 c #231E20",
"9 c #201B1D",
"0 c #1F1A1C",
"q c #2F2B2D",
"w c #1E191B",
"e c #2F2A2C",
"r c #292426",
"t c white",
/* pixels */
" ... X.    .oO XX +  ... X.    .oO XX + ",
"+.X@# X$O%$O&&%*@$%%O%OO= @-;* O::O+XXO$",
">.+-,>X<1&OO2&13%&13@..2;XO%3&O$4<4;#,::",
",;@.+5631&;o4o%3111*X3&o:&134&2:2<3:-4%.",
"7;@>$;8:1&8:1:911113o2:&23&1&12%:4:14@#-",
"5O3**%<:11&111111111102022&111128211$q 6",
",X1&o3811111111&&1111111132111112%:&3@ @",
"q=2ooo211111119o911111111111111111:80:@+",
"+@<8o01111111&%&1111111111111111111&11%6",
"o%9w111111111111111111111111111111111&3;",
"21&11111111:1111111111&w1111111111111O@<",
"$3&1&:11111111&&11111&911111111111&&&4<o",
" 81291111111119o&111111111111111112228<<",
"$@3o:11111111&2211111&111111111111&1&3.>",
"*59:1:&111111111111113111&3&11111111o<=,",
"*+O4:o&11111111119&11111:8+O1111&w1&8%.6",
"<4o:1&1111111::11&011111&:::1wo6;&1489.*",
"6%8&1111111:%@.&1129111111111&8o:1&o9O*<",
"$89111111&1348:1111111111111119&111w18-.",
" ;111111123111111111111111111111111w1%X ",
" ;1111111&o&1111111111111111111111&83O$ ",
"+<111111113%1111111111111111::1111104$O$",
" ;1111111119011111111111111:o&111111&6::",
",4w111%*:111&11111111111111&&1111111:84.",
"eOo&11<691111111111111:3111111111&%%< #-",
"5892&&4911111111111111&%11111111113%8# 6",
", 311&01111111111111111o411111111111o+ @",
"q7;1111111111111139&111:$41111111111:8X+",
"+r411111111:O911:$<:111&O6011111111113$+",
"o3111111111w&1111o82:1111&&111111&2:13X-",
"%:1111111111111111&&w1111111111111&11&-<",
"@$:111:01111111111111111111111111&9&11:o",
" @o111&3w1111111111111111&9111111&882:2<",
"$@21&:11111:911&w11111&:1:%3&111113o4.X>",
"*@o:o<211&1o:11%:1111&30013*21111111:,7,",
"6-X-<-O13@&2%11&1111&o::911ww111111:o*$6",
"<O#+@>@4:;82<8o:926oo< O3*311111112<<O-*",
"6@=5XX6.$;%3$+6<%%3234$%$X<:11113<;+.>6<",
"5X66=,*X# <@  X5*$6<%;8<=,.5,@34X X56@-.",
" .3:-@6*X5@5+#7X6<X  .3:-@6.>@@5+#7X6<X "
};
