/* XPM */
static char * key_xpm[] = {
"40 40 119 2",
"  	c #2A2628",
". 	c #262123",
"+ 	c #292527",
"@ 	c #221D1F",
"# 	c #231F21",
"$ 	c #272224",
"% 	c #282426",
"& 	c #2D292B",
"* 	c #272325",
"= 	c #211D1F",
"- 	c #1E1A1C",
"; 	c #252123",
"> 	c #2C282A",
", 	c #010101",
"' 	c #2A2527",
") 	c #262224",
"! 	c #2B2729",
"~ 	c #241F21",
"{ 	c #1D191B",
"] 	c #211C1E",
"^ 	c #201C1E",
"/ 	c #545B5C",
"( 	c #6B7875",
"_ 	c #6A7473",
": 	c #5B6364",
"< 	c #0F1011",
"[ 	c #1F1B1D",
"} 	c #242022",
"| 	c #282325",
"1 	c #252022",
"2 	c #221E20",
"3 	c #91A29D",
"4 	c #E3FDF7",
"5 	c #D6EDE9",
"6 	c #D9F1ED",
"7 	c #C8DCDB",
"8 	c #BACCCC",
"9 	c #919E9D",
"0 	c #0E0F10",
"a 	c #2E2A2C",
"b 	c #231E20",
"c 	c #201B1D",
"d 	c #D3EAE6",
"e 	c #B2C3C4",
"f 	c #ABBBBC",
"g 	c #A3B2B3",
"h 	c #9FB1AE",
"i 	c #A8B7B9",
"j 	c #70767A",
"k 	c #0C0C0D",
"l 	c #1F1A1C",
"m 	c #9DAAAC",
"n 	c #525659",
"o 	c #1D1F20",
"p 	c #151718",
"q 	c #191A1A",
"r 	c #444A4B",
"s 	c #6F787C",
"t 	c #8E9A9C",
"u 	c #AEBEC0",
"v 	c #2F2B2D",
"w 	c #D8EFEC",
"x 	c #869195",
"y 	c #070808",
"z 	c #677171",
"A 	c #3D4443",
"B 	c #CFE5E3",
"C 	c #889397",
"D 	c #1E191B",
"E 	c #171A19",
"F 	c #B7C9C9",
"G 	c #C6DBD9",
"H 	c #848E93",
"I 	c #BCD2CD",
"J 	c #6E767A",
"K 	c #323335",
"L 	c #242728",
"M 	c #7F888D",
"N 	c #929FA2",
"O 	c #717B7C",
"P 	c #61666A",
"Q 	c #57615E",
"R 	c #798285",
"S 	c #121414",
"T 	c #C2D6D5",
"U 	c #B6C7C9",
"V 	c #BFD2D1",
"W 	c #AEC1BE",
"X 	c #A1AFB2",
"Y 	c #272929",
"Z 	c #99A6A9",
"` 	c #757E82",
" .	c #676D71",
"..	c #353839",
"+.	c #8B959A",
"@.	c #A6B8B5",
"#.	c #424947",
"$.	c #222424",
"%.	c #4D5455",
"&.	c #95A2A5",
"*.	c #494E51",
"=.	c #6A6F73",
"-.	c #C3D9D5",
";.	c #818B8D",
">.	c #2F2A2C",
",.	c #3A413F",
"'.	c #484B4D",
").	c #3B3F41",
"!.	c #363739",
"~.	c #424345",
"{.	c #636A6C",
"].	c #A8B9B7",
"^.	c #292426",
"/.	c #585F62",
"(.	c #565D60",
"_.	c #A7B6B8",
":.	c #2A2B2D",
"<.	c #768082",
"[.	c #7B8589",
"  . . .   + .         . @ #   + +   $     . . .   + .         . @ #   + +   $   ",
"$ . + % &   + * # = * # - - = ; % * = = # = # # > , , , , , , , , , , , , + # * ",
"' . $ ) ! ' + ~ { - # # ] - { ^ = - { ^ % . . ] / ( ( _ _ ( _ _ ( ( : : / < , [ ",
"! } % . $ | 1 ^ { - } @ 2 @ = ^ { { { ; + ^ - , 3 4 5 6 6 6 6 6 6 6 7 8 9 0 , . ",
"a } % ' * } b [ { - b [ { [ c { { { { ^ @ ] [ , 3 d e f g h g h g i e i j k , ) ",
"| # ^ ; ; = ~ [ { { - { { { { { { { { { { l ] , 3 5 m n o p p p q r 9 f s k , 1 ",
"! + { - @ ^ b { { { { { { { { - - { { { { { { , 9 5 t q { { { { ] k j u s k , % ",
"v > ] @ @ @ ] { { { { { { { c @ c { { { { { { , 9 w x y { { { { { , z u s k , $ ",
"$ % ~ b @ l { { { { { { { - = - { { { { { { { A h B C y { { { { { , z u s k , 1 ",
"@ = c D { { { { { { { { { { { { { { { { { { E F G F H y { { { { { , z u s k , } ",
"] { - { { { { { { { { [ { { { { { { { { { { E I G g z y { { { { { , z u s k , ~ ",
"* ^ - { - [ { { { { { { { { - - { { { { { - E I G g J K , , , , , L M f s k , @ ",
"  b { ] c { { { { { { { { { c @ - { { { { { E I 7 i m N O P Q : : R g f j k , ~ ",
"* % ^ @ [ { { { { { { { { - ] ] { { { { { - S e T U V d 6 G U W e u u X j k , ' ",
"; | c [ { [ - { { { { { { { { { { { { { { ^ Y Z U e u e e e Z ` ` ` ` R  .k , ! ",
"; $ # 2 [ @ - { { { { { { { { { { c - { { ..m t C x C C C +.: k < < < S < = . 1 ",
"~ 2 @ [ { - { { { { { { { [ [ { { - l { / @.U t #.$.L L L L o 1 } - { 2 b c . ; ",
"1 = b - { { { { { { { [ = % . - { { ] / h 7 Z %.q { , , , , b @ [ { - @ c # ; ~ ",
"* b c { { { { { { - { ^ 2 b [ { { { A W 7 N / k { { { { { { c - { { { D { b ) . ",
"  } { { { { { { { ] ^ { { { { { { ..I V &./ y { { { { { { { { { { { { D { = +   ",
"  } { { { { { { { - @ - { { { { r I 8 Z *.k { { { { { { { { { { { { - b ^ # *   ",
"$ ~ { { { { { { { { ^ = { { , : W T Z =.Y , { { { { { { [ [ { { { { { l 2 * # * ",
"  } { { { { { { { { { c l { Q g -.&.z  .K , { { { { { [ @ - { { { { { { - 1 [ [ ",
"! 2 D { { { = ; [ { { { - #.e T &.s : ;.r , { { { { { - - { { { { { { { [ b 2 . ",
">.# @ - { { ~ 1 c { { { ,.-.8 Z  .'.J R ).y [ ^ { { { { { { { { { - = = ~   & ) ",
"| b c ] - - 2 c { { , %.T 8 Z =.!.k < < Y ~.- = { { { { { { { { { { ^ = b &   1 ",
"!   ^ { { - l { { , {.W I &.{. .*., { { { { { @ 2 { { { { { { { { { { { @ $   % ",
"v a } { { { { { , : ].T &.{.P +.J , c - { { { [ * 2 { { { { { { { { { { [ b + $ ",
"$ ^.2 { { { { { '.8 T N =./.H i O , ~ [ { { { - # 1 l { { { { { { { { { { ^ * $ ",
"@ ^ { { { { { #.7 8 N =.(.H i X / , b ] [ { { { { - - { { { { { { - ] [ { ^ + ) ",
"= [ { { { , Q T U N P P ;.H C C / , - - D { { { { { { { { { { { { { - { { - ) ~ ",
"% * [ { , _ e I N P P x _.x ).L :.!.{ { { { { { { { { { { { { { { - c - { { [ @ ",
"  % @ < / @.T N =. .t i N '.S { p { { { { { { { { - c { { { { { { - b b ] [ ] ~ ",
"* % ] S &.e C n !./ <.<.%.p { - D { { { { { - [ { [ = ^ - { { { { { ^ @ 2 . + ' ",
"; % @ k {.[.*., , , y , k ~.{ = [ { { { { - ^ l l { ^ ; ] { { { { { { { [ ! a ! ",
"1 ) + , k S k { ^ % - ] = { { - { { { { - @ [ [ c { { D D { { { { { { [ @ ; * 1 ",
"~ # & $ % ' % 2 [ } b ] ~ b @ [ c ] 1 @ @ ~   # ^ ; ^ { { { { { { { ] ~ ~ # ) ; ",
"1 % > | + + 1 . * } = ^ * $ 1 ~ = = ^ ] ^ 2 * = * + ~ [ { { { { ^ ~ } $ . ' 1 ~ ",
"| + 1 1 > ! ; + &   ~ %     + | ; * 1 ~ = } b ~ > ! . | ! % ^ 2 +   + | 1 % ) . ",
"  . ^ [ ) % 1 ; + | % | $ & a + 1 ~ +     . ^ [ ) % 1 . ' % % | $ & a + 1 ~ +   "};
