/* XPM */
static char * lock_xpm[] = {
"40 40 105 2",
"  	c #303138",
". 	c #424348",
"+ 	c #48484D",
"@ 	c #1B1B1C",
"# 	c #40382F",
"$ 	c #382F27",
"% 	c #2E2A25",
"& 	c #36373D",
"* 	c #39393D",
"= 	c #171717",
"- 	c #322C26",
"; 	c #332F28",
"> 	c #3C322A",
", 	c #434349",
"' 	c #37373E",
") 	c #3A3A3D",
"! 	c #28241F",
"~ 	c #3C3C42",
"{ 	c #313134",
"] 	c #464239",
"^ 	c #1E1C19",
"/ 	c #3F382F",
"( 	c #433D34",
"_ 	c #464137",
": 	c #3E3A32",
"< 	c #3C3730",
"[ 	c #392F28",
"} 	c #36322B",
"| 	c #2A2621",
"1 	c #24211E",
"2 	c #1B1916",
"3 	c #272420",
"4 	c #211E1B",
"5 	c #151312",
"6 	c #12100F",
"7 	c #191614",
"8 	c #0C0A0A",
"9 	c #070808",
"0 	c #080807",
"a 	c #120E0E",
"b 	c #33333A",
"c 	c #36363D",
"d 	c #303137",
"e 	c #2F3036",
"f 	c #3E3E44",
"g 	c #444449",
"h 	c #47474C",
"i 	c #080708",
"j 	c #211C1D",
"k 	c #3A393D",
"l 	c #1E1717",
"m 	c #211C1C",
"n 	c #3B3A3E",
"o 	c #3F4045",
"p 	c #3A3B41",
"q 	c #46464B",
"r 	c #2B2224",
"s 	c #35353C",
"t 	c #404146",
"u 	c #413F44",
"v 	c #3B3B41",
"w 	c #2B2223",
"x 	c #35363C",
"y 	c #414147",
"z 	c #414044",
"A 	c #393A40",
"B 	c #323339",
"C 	c #34353B",
"D 	c #38393F",
"E 	c #313239",
"F 	c #34353C",
"G 	c #181818",
"H 	c #27282D",
"I 	c #211818",
"J 	c #221818",
"K 	c #2D2E34",
"L 	c #3A363A",
"M 	c #434246",
"N 	c #2E2729",
"O 	c #281D1D",
"P 	c #3E3B3F",
"Q 	c #251818",
"R 	c #3A373B",
"S 	c #2F282A",
"T 	c #2A2021",
"U 	c #3E3C40",
"V 	c #46454A",
"W 	c #272729",
"X 	c #3F3F43",
"Y 	c #3E3E42",
"Z 	c #44444A",
"` 	c #46464C",
" .	c #44454A",
"..	c #3F3F45",
"+.	c #32333A",
"@.	c #404046",
"#.	c #33343B",
"$.	c #36363A",
"%.	c #323235",
"&.	c #313137",
"*.	c #3A3A3E",
"=.	c #2D2D30",
"-.	c #37373A",
";.	c #484137",
">.	c #494238",
"  . + @ # $ $ $ % & + * = - ; - >   , + @ > > $ $ - ' + ) = ! - ; % % ~ + { ] ^ ",
"  . + @ # # # # / & + * = ( ( ( #   , + @ / / / # _ ' + ) = - > ( : < ~ + { ] ^ ",
"  . + @ [ [ [ $ < & + * = : : < }   , + @ } } < / : ' + ) = ! } ( : : ~ + { } ^ ",
"  . + @ - - - % % & + * = % ; % %   , + @ % ; | ! - ' + ) = 1 | ; % % ~ + { % 2 ",
"  . + @ % | % | 3 & + * = 3 3 3 |   , + @ % | 1 | 3 ' + ) = 4 4 3 | | ~ + { 3 2 ",
"  . + @ ! 1 ! 1 3 & + * = ^ 3 3 1   , + @ 1 1 4 1 1 ' + ) = 2 4 4 4 4 ~ + { 4 2 ",
"  . + @ ^ 5 6 5 5 & + * = 5 5 5 2   , + @ 7 5 5 6 6 ' + ) = 7 2 5 2 2 ~ + { 5 5 ",
"  . + @ 5 8 8 8 8 & + * = 9 8 8 8   , + @ 6 8 8 8 8 ' + ) = 5 5 5 5 6 ~ + { 8 8 ",
"  . + @ 7 0 0 8 8 & + * = 6 8 6 8   , + @ 6 8 6 6 8 ' + ) = 5 6 5 8 8 ~ + { 5 7 ",
"  . + @ 7 0 0 0 0 & + * = 6 5 8 8   , + @ 5 5 5 6 6 ' + ) = 8 8 8 8 5 ~ + { % | ",
"  . + @ 7 0 8 a a & + * = 8 8 8 9   , + @ 6 6 6 6 6 ' + ) = 6 8 8 8 5 ~ + { ; - ",
"  . + @ 7 8 a 5 5 & + * = 8 8 8 0   , + @ 8 8 8 8 8 ' + ) = 2 2 5 6 7 b c d e   ",
"  . + @ 7 8 a a 6 & + * = 8 8 8 8   , + @ 8 8 9 9 9 ' + ) = 1 1 ^ 5     f g g g ",
"  . + @ 7 8 8 8 8 & + * = 8 8 8 8   , + @ 9 6 6 8 6 ' + ) = 1 1 ^ 5   f h + + + ",
"  . + @ a 0 0 0 8 & + * = 8 0 i 0   , + @ 6 7 ^ ^ 2 ' + ) = 1 1 4   f h + + + + ",
"  . + j 7 8 8 8 8 & + k l 9 i 8 9   , + m 7 2 ^ ^ ^ ' + n l 1 1 !   o + + + + + ",
"[ p q r 7 8 8 8 8 s t u 0 0 a 7 5 7 v q w 2 ^ 4 4 1 x y z 1 1 3 3   o + + + + + ",
"    A B             C D               A E             F D           o + + + + + ",
"p p p p p p p p p p p p p p p p p p p p p p p p p p p p p p p p p x o + + + + + ",
"+ + + + + + + + + + + + + + + + + + + + + + + + + + + + + + + + + ~ o + + + + + ",
"+ + + + + + + + + + + + + + + + + + + + + + + + + + + + + + + + + ~ o + + + + + ",
"G G G G G G G G G G G G G G G G G G G G G G G G G G G G G G G G G H o + + + + + ",
"| I J ! 7 a a a a a J J 6 6 a 2 2 2 I J 6 5 2 4 1 2 6 J J 1 1 % % K o + + + + + ",
"$ L M N 7 a a a a O M P Q 6 a 2 2 2 R M S 2 2 4 1 1 T M U Q 1 % |   o + + + + + ",
"V h + W 7 a a a a V + X = 8 a 7 2 V h + W 7 2 ^ ^ 1 V + Y = 1 % %   o + + + + + ",
"+ + + W 4 a 8 a a + + X = a a 7 2 + + + W 5 2 7 4 1 + + Y = 1 3 3 ~ , + + + + + ",
"g q + W 2 a 8 a a Z + X = a a 4 2 g ` + W 7 2 2 4 1  .+ Y = 1 1 1 5 + + + + + + ",
"  ..+ W 2 a 8 8 a +.+ X = a a 7 2   @.+ W 7 2 2 ^ 1 #.+ Y = 1 1 4 5 a $.%.%.%.%.",
"  ..+ W 2 a a a a +.+ X = 6 6 2 2   @.+ W 2 2 2 4 1 #.+ Y = 1 1 4 5 5 &.*.=.= % ",
"  ..+ W ^ a a a a +.+ X = 6 6 ^ 2   @.+ W 7 2 2 ^ 1 #.+ Y = 1 1 4 5 7 D + -.% % ",
"  ..+ W 2 a a 8 a +.+ X = 6 6 ^ ^   @.+ W 5 2 2 ^ ^ #.+ Y = 1 1 4 5 7 D + -.3 3 ",
"  ..+ W 2 a 8 8 6 +.+ X = 6 8 5 5   @.+ W 6 6 5 7 2 #.+ Y = 4 1 4 5 7 D + -.1 3 ",
"  ..+ W 2 a a a a +.+ X = a a a a   @.+ W a a a a 7 #.+ Y = 4 1 4 a 5 D + -.1 3 ",
"  ..+ W 4 7 a 5 a +.+ X = 5 a 5 7   @.+ W 7 7 a 7 ^ #.+ Y = 1 1 4 7 7 D + -.4 4 ",
"  ..+ W | | | | | +.+ X = 1 | | |   @.+ W ! ! ! ! 1 #.+ Y = 3 3 3 3 3 D + -.3 2 ",
"  ..+ W [ # # > # +.+ X = [ # # #   @.+ W # # # # [ #.+ Y = | - > ; ; D + -.< ^ ",
"  ..+ W # # # < # +.+ X = ( ;.( <   @.+ W < # < # ( #.+ Y = % < >.] ( D + -._ ^ ",
"  ..+ W ; [ ; ; ; +.+ X = [ } [ -   @.+ W ; ; - - # #.+ Y = 3 % } } } D + -.% 2 ",
"  ..+ W % % % % % +.+ X = % % % %   @.+ W % % 3 | | #.+ Y = 4 3 % % 3 D + -.| 2 ",
"  ..+ W | | | 3 1 +.+ X = 1 3 3 3   @.+ W | | 1 | 1 #.+ Y = ^ 4 1 3 3 D + -.3 ^ "};
