/* XPM */
static char * prisoner_xpm[] = {
"40 40 95 2",
"  	c #2A2628",
". 	c #262123",
"+ 	c #292527",
"@ 	c #221D1F",
"# 	c #231F21",
"$ 	c #272224",
"% 	c #282426",
"& 	c #2D292B",
"* 	c #272325",
"= 	c #211D1F",
"- 	c #1E1A1C",
"; 	c #252123",
"> 	c #2C282A",
", 	c #262224",
"' 	c #242022",
") 	c #1F1B1D",
"! 	c #2A2527",
"~ 	c #2B2729",
"{ 	c #241F21",
"] 	c #1D191B",
"^ 	c #211C1E",
"/ 	c #201C1E",
"( 	c #221E20",
"_ 	c #282325",
": 	c #252022",
"< 	c #2E2A2C",
"[ 	c #231E20",
"} 	c #201B1D",
"| 	c #1F1A1C",
"1 	c #2F2B2D",
"2 	c #E8A4A4",
"3 	c #1E191B",
"4 	c #E79E9E",
"5 	c #E7A1A1",
"6 	c #E7A0A0",
"7 	c #ECB7B7",
"8 	c #EDBEBF",
"9 	c #E8A2A2",
"0 	c #E9A7A7",
"a 	c #F2D9DC",
"b 	c #F7D7B5",
"c 	c #F69120",
"d 	c #F68302",
"e 	c #F68506",
"f 	c #F68609",
"g 	c #F7BF82",
"h 	c #F7F0F0",
"i 	c #F5E9E9",
"j 	c #F6EEF1",
"k 	c #F7E3D1",
"l 	c #F69D3B",
"m 	c #F68200",
"n 	c #F68303",
"o 	c #F7AF60",
"p 	c #F6E7E1",
"q 	c #EDBFC1",
"r 	c #F6870A",
"s 	c #F7C087",
"t 	c #F7F6FA",
"u 	c #F7F8FC",
"v 	c #F7FAFF",
"w 	c #F7E6D8",
"x 	c #F69E3D",
"y 	c #F6860A",
"z 	c #F6B46D",
"A 	c #F7DFC9",
"B 	c #F7E1CE",
"C 	c #F7D2AE",
"D 	c #F69933",
"E 	c #F6901E",
"F 	c #F69931",
"G 	c #F69932",
"H 	c #F6962C",
"I 	c #F68A12",
"J 	c #F68507",
"K 	c #F68405",
"L 	c #F68201",
"M 	c #2F2A2C",
"N 	c #292426",
"O 	c #FC8909",
"P 	c #FB8909",
"Q 	c #FF8B09",
"R 	c #EC8109",
"S 	c #EE8109",
"T 	c #ED8109",
"U 	c #E77E08",
"V 	c #000000",
"W 	c #1D1001",
"X 	c #562F03",
"Y 	c #603404",
"Z 	c #5E3303",
"` 	c #5F3303",
" .	c #5F3403",
"..	c #412402",
"+.	c #030200",
"  . . .   + .         . @ #   + +   $     . . .   + .         . @ #   + +   $   ",
"$ . + % &   + * # = * # - - = ; % * = = # = # # >   % , ' ;   # ) ) # $ + + # * ",
"! . $ , ~ ! + { ] - # # ^ - ] / = - ] / % . . ^ ' + # = / - # * ( { ( ' & ~ ) ) ",
"~ ' % . $ _ : / ] - ' @ ( @ = / ] ] ] ; + / - @ ) - ] / ( - ^ ) ^ { / ) , ( = . ",
"< ' % ! * ' [ ) ] - [ ) ] ) } ] ] ] ] / @ ^ ) - ^ / - ] - ] ^ = ) ( ) ] ( % & , ",
"_ # / ; ; = { ) ] ] - ] ] ] ] ] ] ] ] ] ] | ^ | ^ ^ - ] ] ] ] ^ [ ^ ] ] * 1   : ",
"~ + ] - @ / [ ] ] ] ] ] ] ] ] - - ] ] ] ] ] ] ] ] / ^ ] ] ] ] ] ^ = ) - / %   % ",
"1 > ^ @ @ @ ^ ] ] ] ] ] ] ] } @ } ] ] ] ] ] ] ] ] ] ] ] ] ] ] ] ] ] ) [ | ) % $ ",
"$ % { [ @ | ] ] ] ] ] ] ] - = - ] 2 2 2 2 2 2 2 2 ] ] ] ] ] ] ] ] ] ] - ] ] = : ",
"@ = } 3 ] ] ] ] ] ] ] ] ] ] ] ] ] 2 2 2 2 2 2 2 2 ] ] ] ] ] ] ] ] ] ] ] ] - / ' ",
"^ ] - ] ] ] ] ] ] ] ] ) ] ] ] ] ] 2 2 2 2 2 2 2 2 ] ] ] ] ] ] ] ] ] ] ] ] # % { ",
"* / - ] - ) ] ] ] ] ] ] ] ] - - ] 2 2 2 2 2 2 2 2 ] ] ] ] ] ] ] ] ] - - - ( { @ ",
"  [ ] ^ } ] ] ] ] ] ] ] ] ] } @ - 2 2 2 2 2 2 2 2 ] ] ] ] ] ] ] ] ] ^ ^ ^ [ { { ",
"* % / @ ) ] ] ] ] ] ] ] ] - ^ ^ ] 2 2 2 2 2 2 2 2 ] ] ] ] ] ] ] ] ] - ] - / . ! ",
"; _ } ) ] ) - ] ] ] ] ] ] ] ] ] ] 2 2 2 2 2 2 2 2 - / - ] ] ] ] ] ] ] ] @ { > ~ ",
"; $ # ( ) @ - ] ] ] ] ] ] ] ] ] ] } - 4 5 6 ] ] ) [ $ # ] ] ] ] - 3 ] - [ = . : ",
"{ ( @ ) ] - ] ] ] ] ] ] ] ) ) ] ] - | ] 7 8 ] ] - ) ) ) ] 3 @ : ' - ] ( [ } . ; ",
": = [ - ] ] ] ] ] 2 9 0 a b c d e f g h i j k l m f n o p q 9 2 ) ] - @ } # ; { ",
"* [ } ] ] ] ] ] ] 2 9 0 a b c d e r s t u v w x m f n o p q 9 2 ] ] ] 3 ] [ , . ",
"  ' ] ] ] ] ] ] ] 2 9 0 a b c d e y z A A B C D d f n o p q 9 2 ] ] ] 3 ] = +   ",
"  ' ] ] ] ] ] ] ] - @ - ] ] ] ] ] f E F F G H I J ] ] ] ] ] ] ] ] ] - [ / # *   ",
"$ { ] ] ] ] ] ] ] ] / = ] ] ] ] ] f K L L L d J y ] ] ] ) ) ] ] ] ] ] | ( * # * ",
"  ' ] ] ] ] ] ] ] ] ] } | ] ] ] ] f f f f f f f f ] ] ) @ - ] ] ] ] ] ] - : ) ) ",
"~ ( 3 ] ] ] = ; ) ] ] ] - ] ] ] ] f f f f f f f f ] ] - - ] ] ] ] ] ] ] ) [ ( . ",
"M # @ - ] ] { : } ] ] ] ] ] ] ] ] f f f f f f f f ] ] ] ] ] ] ] ] - = = {   & , ",
"_ [ } ^ - - ( } ] ] ] ] ] ] ] ] ] f f f f f f f f ] ] ] ] ] ] ] ] ] / = [ &   : ",
"~   / ] ] - | ] ] ] ] ] ] ] ] ] ] f f f f f f f f ] ] ] ] ] ] ] ] ] ] ] @ $   % ",
"1 < ' ] ] ] ] ] ] ] ] ] ] ] ] ] ] f f f f f f f f ( ] ] ] ] ] ] ] ] ] ] ) [ + $ ",
"$ N ( ] ] ] ] ] ] ] ] ) # } ] ] ) f f f f f f f f : | ] ] ] ] ] ] ] ] ] ] / * $ ",
"@ / ] ] ] ] ] ] ] ] ] 3 - ] ] ] ] f f f ) f f f f - - ] ] ] ] ] ] - ^ ) ] / + , ",
"= ) ] ] ] ] ] ] ] ] ] ] ] ] ] ] ] f f f 3 ] f f f ] ] ] ] ] ] ] ] ] - ] ] - , { ",
"% * ) ] ] ] ) | ] ] ] ] ] ] ] ] ] f f f ] ] f f f ] ] ] ] ] ] ] ] - } - ] ] ) @ ",
"  % @ ] ] ] - / 3 ] ] ] ] ] ] ] ] f f f ] ] f f f - } ] ] ] ] ] ] - [ [ ^ ) ^ { ",
"* % ^ ] - ) ] ] ] ] ] ) } ] ] - 3 O P P ] ] P P Q ) = / - ] ] ] ] ] / @ ( . + ! ",
"; % @ ) @ { ^ ] ] - ] @ ) ] ] = ) R S T ] - T T U ] / ; ^ ] ] ] ] ] ] ] ) ~ < ~ ",
": , + , { , # ] / % - ^ = ] V V W X Y Z - @ `  ...+.V 3 3 ] ] ] ] ] ] ) @ ; * : ",
"{ # & $ % ! % ( ) ' [ ^ { [ V V V V V V @ { V V V V V V ] ] ] ] ] ] ^ { { # , ; ",
": % > _ + + : . * ' = / * $ V V V V V V / ( V V V V V V ] ] ] ] / { ' $ . ! : { ",
"_ + : : > ~ ; + &   { %     + _ ; * : { = ' [ { > ~ . _ ~ % / ( +   + _ : % , . ",
"  . / ) , % : ; + _ % _ $ & < + : { +     . / ) , % : . ! % % _ $ & < + : { +   "};
