/* XPM */
static char *f27a8d8b20e342d7d069d97142ad5336kM3cVabOun0M1Gdd[] = {
/* columns rows colors chars-per-pixel */
"40 40 164 2 ",
"   c #150F0F",
".  c #16100F",
"X  c #171110",
"o  c #1C1514",
"O  c #1E1815",
"+  c #201716",
"@  c #211A17",
"#  c #251C19",
"$  c #281D1B",
"%  c #291D1B",
"&  c #291C1B",
"*  c #2A1D1B",
"=  c #281E1A",
"-  c #281F1A",
";  c #281E1B",
":  c #291E1B",
">  c #281F1B",
",  c #291F1B",
"<  c #2A1D1C",
"1  c #2A1E1C",
"2  c #2B1E1C",
"3  c #2A1F1C",
"4  c #2B1F1D",
"5  c #2C1F1D",
"6  c #2A1E1C",
"7  c #242019",
"8  c #272019",
"9  c #26201A",
"0  c #27201A",
"q  c #26211A",
"w  c #27211A",
"e  c #26201B",
"r  c #27201B",
"t  c #26211B",
"y  c #27211B",
"u  c #26201B",
"i  c #28201A",
"p  c #28201B",
"a  c #2A211B",
"s  c #28201C",
"d  c #29201C",
"f  c #28211C",
"g  c #29211C",
"h  c #2A201C",
"j  c #2B201C",
"k  c #2A201D",
"l  c #2B201D",
"z  c #2A211D",
"x  c #2B211D",
"c  c #29231C",
"v  c #2A221C",
"b  c #2B221C",
"n  c #2B231C",
"m  c #2C201D",
"M  c #2D201D",
"N  c #2C211D",
"B  c #2D211D",
"V  c #2C221C",
"C  c #2D231D",
"Z  c #2D201E",
"A  c #2C211E",
"S  c #2D211E",
"D  c #2E201E",
"F  c #2E211E",
"G  c #2E211F",
"H  c #2F211F",
"J  c #2E221E",
"K  c #2E231E",
"L  c #2E221F",
"P  c #2F221F",
"I  c #2E231F",
"U  c #2F231F",
"Y  c #29241C",
"T  c #2A241C",
"R  c #2B241C",
"E  c #2A241D",
"W  c #2B241D",
"Q  c #2B251D",
"!  c #2C241C",
"~  c #2C251C",
"^  c #2C241D",
"/  c #2C251D",
"(  c #2E241E",
")  c #2E251F",
"_  c #2E261E",
"`  c #2F261E",
"'  c #2C211D",
"]  c #2F281F",
"[  c #30211F",
"{  c #30221F",
"}  c #30231F",
"|  c #30241F",
" . c #30251F",
".. c #30221F",
"X. c #30281F",
"o. c #30281F",
"O. c #2F2720",
"+. c #2F2820",
"@. c #302120",
"#. c #312120",
"$. c #302220",
"%. c #312220",
"&. c #312320",
"*. c #322220",
"=. c #322320",
"-. c #322221",
";. c #322321",
":. c #332321",
">. c #302520",
",. c #322421",
"<. c #332421",
"1. c #322521",
"2. c #332521",
"3. c #332621",
"4. c #322721",
"5. c #332721",
"6. c #342521",
"7. c #342522",
"8. c #342622",
"9. c #342722",
"0. c #352722",
"q. c #322321",
"w. c #312921",
"e. c #322821",
"r. c #332921",
"t. c #322A21",
"y. c #332A21",
"u. c #322B21",
"i. c #332922",
"p. c #342821",
"a. c #362823",
"s. c #362923",
"d. c #342A22",
"f. c #342B22",
"g. c #352B22",
"h. c #372A23",
"j. c #372B23",
"k. c #332C21",
"l. c #362C23",
"z. c #372C23",
"x. c #372D23",
"c. c #372E23",
"v. c #372B24",
"b. c #372E24",
"n. c #372F24",
"m. c #342A22",
"M. c #382B24",
"N. c #382C24",
"B. c #392C24",
"V. c #382D24",
"C. c #392C25",
"Z. c #392D25",
"A. c #392E25",
"S. c #392F25",
"D. c #3A2E25",
"F. c #3A2F25",
"G. c #3B2F25",
"H. c #392E25",
"J. c #3A3025",
"K. c #3B3025",
"L. c #3A3125",
"P. c #3B3026",
"I. c #3B3126",
"U. c #3B3126",
/* pixels */
"  X o o o o O O O o o o o o o o o O o o X o o O O O o o o o o o o o O o o X o o ",
"o o 7 # # 7 f O # f 7 O @ f f # O f p # o @ 7 f @ # f 7 O O f f # O f p # O # 7 ",
"o X O O O @ @ o O @ @   o @ @ O o @ @ O X o @ @ o O @ @ . o @ @ O X @ @ O X + @ ",
"O O @ # @ O @ @ & Y @ f @ O @ @ @ ) # 7 & @ O @ @ & ) @ f @ O @ @ @ ) # # # O @ ",
"O # 3 D &.# &.&.8.8.# 8.&.D 3 &.&.g.f D 8.&.# { &.8.8.# 8.&.D & &.&.g.D D >.# { ",
"o + @ & D @ 3 { D D @ D D 3 @ D D { @ & { >.& D D D D @ D D 3 @ D { { & # { & f ",
"o   O # o @ 7 Y # Y Y @ o O # Y 7 7 Y 7 # K.K.r.f # f Y @ o O # Y 7 7 Y 7 # C.f ",
"o o Y M.&.g.J.g.# C.C.D 3 >.C.J.p | J.g.# &.&.g.x.# C.C.D & >.C.J.D D J.C.# { D ",
"o o f D D &.&.D & &.&.3 # &.&.&.& D &.&.@ D &.&.D # &.&.5 # &.&.&.& D &.&.@ D p ",
"o . o # # @ # p 7 f f O @ # @ p 7 7 f # o # @ # p 7 f f + O # @ & 7 p f # X O o ",
"o X # >.r.& r.n.D # f 3 g.Y D n.r.f 7 D D k.& r.n.D # f 3 r.) f x.g.f 7 D & # @ ",
"o @ p &.D D >.>.&.f D &.>.f &.>.>.{ f &.&.{ D >.>.&.f D &.>.f &.>.>.&.f &.D D f ",
"  O O & @ @ D D D @ @ & & O & D D 3 + & & @ + 5 D D @ @ & & O & D D 3 + & @ + # ",
"X X @ # # @ # 7 # @ # @ @ # + # # @ @ # o # @ @ 7 # @ # @ O # + # # @ @ # o @ o ",
"o o ) C.C.8.&.f { &.M.) ) M.&.{ f &.8.C.# v.8.&.D D &.M.| D C.&.&.f &.8.C.& >.D ",
"o o D &.&.&.&.f f &.&.3 3 &.&.D p { &.{ & { &.&.f f &.&.5 3 &.&.{ 7 D &.{ & { &.",
"o . X o # 7 7 @ O O o # @ # # r.J.J.@ O # # 7 7 # O O X # @ # 7 # O O o O 7 # o ",
"O @ O D D # D D g.x.p x.D p f &.>.>.f X.>.D # D { >.n.7 x.{ f f { D C.) ) >.# & ",
"O # O 3 &.# D &.&.{ @ &.&.D # &.&.&.& 3 &.&.# D &.&.&.@ &.&.D & &.&.&.& & &.# D ",
"O o o @ @ O # f D 3 @ # @ @ O f f f # # # @ O # f f f @ # @ @ O 3 f f # # # O O ",
"o X f ) @ ) r.r.# r.k.# + # X.k.p D x.] @ @ D r.r.# r.x.# + # ] k.f f x.r.@ p # ",
"o o >.8.&.8.g.>.@ g.g.D 3 >.g.g.& D g.8.# &.8.g.>.@ 8.g.D 3 >.g.g.& D g.8.& 8.) ",
"o o D D D D D D 3 { { @ @ D D D 3 D { D @ f D D D 3 { { & @ D D D 3 D { D @ 5 & ",
"o   O 7 7 O # Y 7 # # O # @ @ f f # 7 # O 7 O # Y 7 # 7 O # # @ f f # 7 # o O X ",
"o O f 8.g.D g.C.&.p D &.v.) &.C.g.D f &.8.x.D g.C.>.f D &.g.) &.C.g.D f &.D f 7 ",
"o # & &.5 3 &.&.&.3 D &.&.& &.&.&.&.& &.&.D 3 &.&.&.3 D &.&.& { &.&.{ # &.D 3 D ",
"  X X O o X # f # O O O O X + & p @ o O O o X @ f # O O O O X O # ) C.D O o X O ",
"  O f r.r.D 3 f f 3 r.p p r.3 D f 3 D r.# r.D 3 f f 3 r.Y p r.3 D D 8.g.r.# f @ ",
"  # f 8.8.&.&.f D &.8.3 3 8.&.D f &.>.>.@ >.>.&.D D &.8.D 3 8.&.&.f &.&.8.@ D 7 ",
"X O & 3 D D D # # 3 3 3 & D >.>.Y 3 & 3 # D D D # # 3 3 3 & D D D # & & 3 p D # ",
"o X X O # 7 f # # # o f @ # r.C.C.p O @ p # 7 p # # # o f @ # 7 p @ # O @ f # O ",
"o o O D &.# &.&.8.j.& g.&.f 3 &.&.C.D | 8.{ # { &.8.C.& g.&.f 3 &.&.M.) ) >.# D ",
"o o @ & &.@ D &.&.D @ &.&.5 # &.&.&.@ & &.&.# f &.&.{ @ { &.D # &.&.&.& & &.# # ",
"o . X @ O O # 7 7 7 # @ o O O 7 7 p 7 # O o O # p 7 7 # @ o O O 7 7 7 7 # @ o X ",
"O @ x.x.D g.J.x.# C.J.f & &.C.J.f ) K.x.@ 5 g.J.x.# C.J.D # { C.J.) D J.n.@ r.) ",
"O # &.&.&.&.&.D # &.&.3 & &.&.&.& D &.&.@ { &.&.{ @ &.&.5 # &.&.&.& 5 &.&.@ { f ",
"O o @ # # 3 f f # f f @ @ & & f 7 f D & o # & & f 7 f f @ @ & # f p f f 3 O @ O ",
"O o O f ] # O.k.r.7 f @ ) 7 # r.) 7 7 & & ] # ) r.f # f @ ) p # r.+.7 7 & @ @ @ ",
"O @ s >.>.D 8.g.g.) D &.8.D &.g.8.D f &.>.>.D 8.g.&.f D &.8.D &.g.8.D f &.D D f ",
"O @ @ &.3 & &.&.&.& 5 &.&.@ D &.&.D @ &.&.3 & &.&.&.& 5 &.&.@ D &.&.{ @ &.5 & D "
};
